<?xml version="1.0" encoding="utf-8"?>
<!-- Generator: Adobe Illustrator 17.1.0, SVG Export Plug-In . SVG Version: 6.00 Build 0)  -->
<!DOCTYPE svg PUBLIC "-//W3C//DTD SVG 1.1//EN" "http://www.w3.org/Graphics/SVG/1.1/DTD/svg11.dtd">
<svg version="1.1" id="Layer_1" xmlns="http://www.w3.org/2000/svg" xmlns:xlink="http://www.w3.org/1999/xlink" x="0px" y="0px"
	 width="1400px" height="980px" viewBox="0 0 1400 980" enable-background="new 0 0 1400 980" xml:space="preserve">
<g>
	<g>
		<rect x="0" y="771.9" fill-rule="evenodd" clip-rule="evenodd" fill="#E0AF7D" width="1400" height="208.1"/>
		<rect x="0" y="0" fill-rule="evenodd" clip-rule="evenodd" fill="#FDCC97" width="1400" height="703.1"/>
		<rect x="0" y="703.1" fill-rule="evenodd" clip-rule="evenodd" fill="#FDF9CE" width="1400" height="68.7"/>
	</g>
	<g>
		<rect x="395.2" y="506.5" fill-rule="evenodd" clip-rule="evenodd" fill="#876427" width="609.6" height="133.4"/>
		<rect x="345.5" y="477.3" fill-rule="evenodd" clip-rule="evenodd" fill="#C9962B" width="709" height="29.1"/>
		<rect x="395.2" y="506.5" fill-rule="evenodd" clip-rule="evenodd" fill="#C9962B" width="609.6" height="29.1"/>
		<rect x="395.2" y="535.6" fill-rule="evenodd" clip-rule="evenodd" fill="#C9962B" width="29.1" height="301.6"/>
		<rect x="975.7" y="535.6" fill-rule="evenodd" clip-rule="evenodd" fill="#C9962B" width="29.1" height="301.6"/>
		<rect x="700" y="535.6" fill-rule="evenodd" clip-rule="evenodd" fill="#C9962B" width="275.7" height="104.3"/>
		<rect x="719.3" y="542.9" fill-rule="evenodd" clip-rule="evenodd" fill="#E5AB26" width="237.1" height="89.7"/>
		<path fill-rule="evenodd" clip-rule="evenodd" fill="#876427" d="M837.8,575.1c7,0,12.7,5.7,12.7,12.7c0,7-5.7,12.7-12.7,12.7
			c-7,0-12.7-5.7-12.7-12.7C825.2,580.8,830.8,575.1,837.8,575.1"/>
	</g>
	<g>
		<path fill-rule="evenodd" clip-rule="evenodd" fill="#5F6029" d="M569.5,285.5h261c2.5,0,4.5,2,4.5,4.5v161.7c0,2.5-2,4.5-4.5,4.5
			h-261c-2.5,0-4.5-2-4.5-4.5V289.9C565,287.5,567,285.5,569.5,285.5"/>
		<path fill-rule="evenodd" clip-rule="evenodd" fill="#D0E7C4" d="M578.3,294.5h243.4c2.2,0,4,1.8,4,4v144.6c0,2.2-1.8,4-4,4H578.3
			c-2.2,0-4-1.8-4-4V298.5C574.3,296.3,576.1,294.5,578.3,294.5"/>
		<path fill-rule="evenodd" clip-rule="evenodd" fill="#2E2F15" d="M555,456.1H845c0,11.7-9.5,21.2-21.2,21.2H576.2
			C564.5,477.3,555,467.8,555,456.1z"/>
		<path fill-rule="evenodd" clip-rule="evenodd" fill="#D0E7C4" d="M580.9,463.8h9.9c1.6,0,2.9,1.3,2.9,2.9c0,1.6-1.3,2.9-2.9,2.9
			h-9.9c-1.6,0-2.9-1.3-2.9-2.9C578,465.1,579.3,463.8,580.9,463.8"/>
		<path fill-rule="evenodd" clip-rule="evenodd" fill="#D0E7C4" d="M602.5,463.8h9.9c1.6,0,2.9,1.3,2.9,2.9c0,1.6-1.3,2.9-2.9,2.9
			h-9.9c-1.6,0-2.9-1.3-2.9-2.9C599.6,465.1,600.9,463.8,602.5,463.8"/>
		<path fill-rule="evenodd" clip-rule="evenodd" fill="#D0E7C4" d="M624.1,463.8h9.9c1.6,0,2.9,1.3,2.9,2.9c0,1.6-1.3,2.9-2.9,2.9
			h-9.9c-1.6,0-2.9-1.3-2.9-2.9C621.2,465.1,622.5,463.8,624.1,463.8"/>
		<path fill-rule="evenodd" clip-rule="evenodd" fill="#D0E7C4" d="M814.2,462.9c2.1,0,3.9,1.7,3.9,3.9c0,2.1-1.7,3.9-3.9,3.9
			c-2.1,0-3.9-1.7-3.9-3.9C810.3,464.6,812.1,462.9,814.2,462.9"/>
	</g>
	<g>
		<path fill-rule="evenodd" clip-rule="evenodd" fill="#96CBCB" d="M608.5,670.8h183.1c14.5,0,26.4,11.9,26.4,26.4H582.1
			C582.1,682.6,594,670.8,608.5,670.8"/>
		<path fill-rule="evenodd" clip-rule="evenodd" fill="#2E2F15" d="M602.3,717.3h195.5c11.1,0,20.2-9.1,20.2-20.2v0H582.1v0
			C582.1,708.2,591.2,717.3,602.3,717.3"/>
		<rect x="686.8" y="717.3" fill-rule="evenodd" clip-rule="evenodd" fill="#2E2F15" width="26.4" height="149.2"/>
		<path fill-rule="evenodd" clip-rule="evenodd" fill="#2E2F15" d="M685.3,734.4h29.5c2.3,0,4.3-1.9,4.3-4.3v0
			c0-2.3-1.9-4.3-4.3-4.3h-29.5c-2.3,0-4.3,1.9-4.3,4.3v0C681,732.5,682.9,734.4,685.3,734.4"/>
		<path fill-rule="evenodd" clip-rule="evenodd" fill="#2E2F15" d="M685.3,750.7h29.5c2.3,0,4.3-1.9,4.3-4.3v0
			c0-2.3-1.9-4.3-4.3-4.3h-29.5c-2.3,0-4.3,1.9-4.3,4.3v0C681,748.8,682.9,750.7,685.3,750.7"/>
		<path fill-rule="evenodd" clip-rule="evenodd" fill="#2E2F15" d="M685.3,767h29.5c2.3,0,4.3-1.9,4.3-4.3v0c0-2.3-1.9-4.3-4.3-4.3
			h-29.5c-2.3,0-4.3,1.9-4.3,4.3v0C681,765,682.9,767,685.3,767"/>
		<path fill-rule="evenodd" clip-rule="evenodd" fill="#2E2F15" d="M685.3,783.2h29.5c2.3,0,4.3-1.9,4.3-4.3v0
			c0-2.3-1.9-4.3-4.3-4.3h-29.5c-2.3,0-4.3,1.9-4.3,4.3v0C681,781.3,682.9,783.2,685.3,783.2"/>
		<path fill-rule="evenodd" clip-rule="evenodd" fill="#2E2F15" d="M688.8,848.5h22.3c4.1,0,7.4,3.4,7.4,7.4v21.2
			c0,4.1-3.4,7.4-7.4,7.4h-22.3c-4.1,0-7.4-3.4-7.4-7.4V856C681.4,851.9,684.7,848.5,688.8,848.5"/>
		<rect x="634.8" y="870.2" fill-rule="evenodd" clip-rule="evenodd" fill="#2E2F15" width="130.3" height="14.4"/>
		<path fill-rule="evenodd" clip-rule="evenodd" fill="#2E2F15" d="M634.8,870.2c7.1,0,12.8,5.7,12.8,12.8c0,7.1-5.7,12.8-12.8,12.8
			c-7.1,0-12.8-5.7-12.8-12.8C622,876,627.8,870.2,634.8,870.2"/>
		<path fill-rule="evenodd" clip-rule="evenodd" fill="#2E2F15" d="M765.2,870.2c7.1,0,12.8,5.7,12.8,12.8c0,7.1-5.7,12.8-12.8,12.8
			c-7.1,0-12.8-5.7-12.8-12.8C752.4,876,758.1,870.2,765.2,870.2"/>
		<path fill-rule="evenodd" clip-rule="evenodd" fill="#FDF9CE" d="M634.8,886.7h-16.5c0-9.1,7.4-16.5,16.5-16.5
			c9.1,0,16.5,7.4,16.5,16.5H634.8z M765.2,886.7h-16.5c0-9.1,7.4-16.5,16.5-16.5s16.5,7.4,16.5,16.5H765.2z"/>
	</g>
	<g>
		<rect x="0" y="186" fill-rule="evenodd" clip-rule="evenodd" fill="#C9962B" width="340" height="22.8"/>
		<g>
			<rect x="49.8" y="66.1" fill-rule="evenodd" clip-rule="evenodd" fill="#96CBCB" width="45.7" height="119.9"/>
			<rect x="56" y="74.6" fill-rule="evenodd" clip-rule="evenodd" fill="#FDF9CE" width="33.3" height="44.2"/>
			<rect x="56" y="171.4" fill-rule="evenodd" clip-rule="evenodd" fill="#FDF9CE" width="33.3" height="7.8"/>
			<rect x="95.5" y="66.1" fill-rule="evenodd" clip-rule="evenodd" fill="#FFCC06" width="45.7" height="119.9"/>
			<rect x="101.7" y="74.6" fill-rule="evenodd" clip-rule="evenodd" fill="#FDF9CE" width="33.3" height="44.2"/>
			<rect x="101.7" y="171.4" fill-rule="evenodd" clip-rule="evenodd" fill="#FDF9CE" width="33.3" height="7.8"/>
			<rect x="141.1" y="66.1" fill-rule="evenodd" clip-rule="evenodd" fill="#F15F61" width="45.7" height="119.9"/>
			<rect x="147.3" y="74.6" fill-rule="evenodd" clip-rule="evenodd" fill="#FDF9CE" width="33.3" height="44.2"/>
			<rect x="147.3" y="171.4" fill-rule="evenodd" clip-rule="evenodd" fill="#FDF9CE" width="33.3" height="7.8"/>
		</g>
	</g>
	<g>
		<rect x="95.1" y="319.6" fill-rule="evenodd" clip-rule="evenodd" fill="#C9962B" width="340" height="22.8"/>
		<g>
			<rect x="121.2" y="274" fill-rule="evenodd" clip-rule="evenodd" fill="#F15F61" width="119.9" height="45.7"/>
			<rect x="129.7" y="280.1" fill-rule="evenodd" clip-rule="evenodd" fill="#FDF9CE" width="44.2" height="33.3"/>
			<rect x="226.5" y="280.1" fill-rule="evenodd" clip-rule="evenodd" fill="#FDF9CE" width="7.8" height="33.3"/>
			
				<rect x="250.7" y="208.7" transform="matrix(-0.5522 0.8337 -0.8337 -0.5522 648.6055 188.9983)" fill-rule="evenodd" clip-rule="evenodd" fill="#FFCC06" width="45.7" height="119.9"/>
			
				<rect x="232.5" y="230.4" transform="matrix(-0.5522 0.8337 -0.8337 -0.5522 597.2764 184.2603)" fill-rule="evenodd" clip-rule="evenodd" fill="#FDF9CE" width="33.3" height="44.2"/>
			
				<rect x="298" y="292" transform="matrix(-0.5522 0.8337 -0.8337 -0.5522 735.2012 196.9801)" fill-rule="evenodd" clip-rule="evenodd" fill="#FDF9CE" width="33.3" height="7.9"/>
		</g>
	</g>
	<g>
		<path fill-rule="evenodd" clip-rule="evenodd" fill="#5F6029" d="M700,49.8c46.9,0,85,38.1,85,85c0,46.9-38.1,85-85,85
			c-46.9,0-85-38.1-85-85C615,87.9,653.1,49.8,700,49.8"/>
		<path fill-rule="evenodd" clip-rule="evenodd" fill="#FDF9CE" d="M700,64.4c38.9,0,70.4,31.5,70.4,70.4
			c0,38.9-31.5,70.4-70.4,70.4c-38.9,0-70.4-31.5-70.4-70.4C629.6,95.9,661.1,64.4,700,64.4"/>
		<path fill-rule="evenodd" clip-rule="evenodd" fill="#2E2F15" d="M700,57.1L700,57.1c2,0,3.6,1.6,3.6,3.6v7.3c0,2-1.6,3.6-3.6,3.6
			c-2,0-3.6-1.6-3.6-3.6v-7.3C696.4,58.8,698,57.1,700,57.1 M700,198L700,198c2,0,3.6,1.6,3.6,3.6v7.3c0,2-1.6,3.6-3.6,3.6
			c-2,0-3.6-1.6-3.6-3.6v-7.3C696.4,199.6,698,198,700,198z"/>
		<path fill-rule="evenodd" clip-rule="evenodd" fill="#2E2F15" d="M622.3,134.8L622.3,134.8c0-2,1.6-3.6,3.6-3.6h7.3
			c2,0,3.6,1.6,3.6,3.6c0,2-1.6,3.6-3.6,3.6h-7.3C623.9,138.5,622.3,136.8,622.3,134.8 M763.1,134.8L763.1,134.8
			c0-2,1.6-3.6,3.6-3.6h7.3c2,0,3.6,1.6,3.6,3.6c0,2-1.6,3.6-3.6,3.6h-7.3C764.8,138.5,763.1,136.8,763.1,134.8z"/>
		<path fill-rule="evenodd" clip-rule="evenodd" fill="#2E2F15" d="M700,131.4c1.9,0,3.4,1.5,3.4,3.4c0,1.9-1.5,3.4-3.4,3.4
			c-1.9,0-3.4-1.5-3.4-3.4C696.6,133,698.1,131.4,700,131.4"/>
		<path fill-rule="evenodd" clip-rule="evenodd" fill="#2E2F15" d="M700,134.8L700,134.8c-1.1,0-2-0.9-2-2V81.6c0-1.1,0.9-2,2-2h0
			c1.1,0,2,0.9,2,2v51.3C702,134,701.1,134.8,700,134.8"/>
		<path fill-rule="evenodd" clip-rule="evenodd" fill="#2E2F15" d="M736.1,134.8L736.1,134.8c0,1.1-0.9,2-2,2h-34c-1.1,0-2-0.9-2-2
			v0c0-1.1,0.9-2,2-2h34C735.3,132.9,736.1,133.8,736.1,134.8"/>
	</g>
	<g>
		<rect x="1060" y="186" fill-rule="evenodd" clip-rule="evenodd" fill="#C9962B" width="340" height="22.8"/>
		<rect x="1304.5" y="66.1" fill-rule="evenodd" clip-rule="evenodd" fill="#CC5E96" width="45.7" height="119.9"/>
		<rect x="1310.7" y="74.6" fill-rule="evenodd" clip-rule="evenodd" fill="#FDF9CE" width="33.3" height="44.2"/>
		<rect x="1310.7" y="171.4" fill-rule="evenodd" clip-rule="evenodd" fill="#FDF9CE" width="33.3" height="7.8"/>
		<rect x="1258.9" y="66.1" fill-rule="evenodd" clip-rule="evenodd" fill="#95C93D" width="45.7" height="119.9"/>
		<rect x="1265" y="74.6" fill-rule="evenodd" clip-rule="evenodd" fill="#FDF9CE" width="33.3" height="44.2"/>
		<rect x="1265" y="171.4" fill-rule="evenodd" clip-rule="evenodd" fill="#FDF9CE" width="33.3" height="7.8"/>
		<rect x="1213.2" y="66.1" fill-rule="evenodd" clip-rule="evenodd" fill="#FFCC06" width="45.7" height="119.9"/>
		<rect x="1219.4" y="74.6" fill-rule="evenodd" clip-rule="evenodd" fill="#FDF9CE" width="33.3" height="44.2"/>
		<rect x="1219.4" y="171.4" fill-rule="evenodd" clip-rule="evenodd" fill="#FDF9CE" width="33.3" height="7.8"/>
	</g>
	<g>
		<path fill-rule="evenodd" clip-rule="evenodd" fill="#FDF9CE" d="M906.4,245.7h107.1c5.5,0,10,4.5,10,10v107.1c0,5.5-4.5,10-10,10
			H906.4c-5.5,0-10-4.5-10-10V255.7C896.4,250.2,900.9,245.7,906.4,245.7"/>
		<path fill-rule="evenodd" clip-rule="evenodd" fill="#F15F61" d="M906.7,245.7h106.5c5.7,0,10.3,4.6,10.3,10.3v18.6H896.4v-18.6
			C896.4,250.3,901,245.7,906.7,245.7"/>
		<path fill-rule="evenodd" clip-rule="evenodd" fill="#2E2F15" d="M950.3,314.3c2-1.2,3.8-2.5,5.3-3.8c0,1.3,0,3.3-0.1,6.2
			c0,2.9,0,5,0,6.4c0,4.3-0.1,9.6-0.2,15.8c-0.1,6.2-0.2,10.1-0.2,11.7c0,2.4,0.8,4.3,2.3,5.5c1.5,1.3,3.5,2,5.8,2
			c2.3,0,4.2-0.6,5.8-1.7c1.6-1.2,2.5-2.8,2.5-4.8c0-4.2,0-10.5,0-18.9c0-8.4,0-14.7,0-18.9v-17.9c0-2.4-1.2-4.3-3.5-5.7
			c-1.1-0.7-2.7-1.1-4.8-1.1c-1.5-0.1-3.5,0.6-6,2.1c-2.5,1.4-7.1,4.5-14,9.2c-1.5,1.1-2.6,2.2-3.3,3.2c-0.7,1-1.1,2.3-1.1,3.9
			c0,1.8,0.7,3.6,2.1,5.3c1.4,1.7,3,2.6,4.8,2.6C947.5,315.4,949,315.1,950.3,314.3"/>
		<path fill-rule="evenodd" clip-rule="evenodd" fill="#FDF9CE" d="M981.4,252.6c0,0.7,0,1.7,0,3.1c0,1.4,0,2.4,0,3.1
			c0,1,0,2.2,0,3.5c0,1.3-0.1,2.4-0.1,3.3c0,0.9,0,1.3,0,1.4c0,0.2,0,0.5,0.1,0.8c0.1,0.7,0.3,1.3,0.8,1.5c0.4,0.3,1.2,0.4,2.3,0.4
			h7.9c1.2-0.1,1.9-0.8,1.9-2.1c0-1.4-0.6-2-1.8-2c-0.2,0-0.9,0-2.1,0.1c-1.9,0-3.3,0-4.4,0c0-0.2,0-0.6,0-1.1c0-0.5,0-0.8,0-1.1
			c0-0.6,0-1.1,0-1.3h4.9c1.2,0,1.9-0.6,1.9-1.9c0-0.8-0.2-1.4-0.5-1.6c-0.4-0.2-1-0.4-1.8-0.4c-0.2,0-0.8,0-1.7,0c-1,0-1.6,0-2,0
			h-0.6v0l0.1-2.5v-1.2h0.7c3.8,0,5.8,0,6-0.1c0.8-0.2,1.1-0.9,1.1-2.1c0-0.5-0.2-0.9-0.5-1.3c-0.3-0.3-0.8-0.5-1.3-0.5
			c-0.2,0-0.5,0-1,0c-0.5,0-1.3,0-2.4,0c-1.1,0-2.4,0-3.8,0c-0.1,0-0.4,0-1,0c-0.6,0-1.2,0.2-1.6,0.5
			C981.6,251.5,981.4,252,981.4,252.6 M965.7,267.5c0-0.7,0-2.1-0.1-4.2c0-2,0-3.7,0-5l6.8,9.9c0.4,0.5,0.7,0.9,1.1,1.2
			c0.4,0.3,0.8,0.4,1.3,0.4c0.7,0,1.4-0.2,1.9-0.5c0.6-0.4,0.8-0.9,0.8-1.5c0-1.3,0-2.5,0-3.6c0-1.1,0-1.8,0-2c0-1.1,0-2.7,0-4.8
			c0-2.1,0-3.7,0-4.8c0-0.7-0.2-1.2-0.6-1.5c-0.4-0.4-1-0.5-1.6-0.5c-0.9,0-1.5,0.2-1.9,0.5c-0.4,0.4-0.6,1-0.6,1.9l0.1,4.7
			c0,0.4,0,1,0,1.9c0,0.9,0,1.6,0,1.9l-0.8-1.2l-5.9-8.2c-0.7-1-1.6-1.5-2.5-1.5c-0.7,0-1.3,0.2-1.9,0.5c-0.6,0.3-0.9,0.8-0.9,1.4
			v3.3v5.8c0,2.9,0,5,0,6.2c0.1,1.3,0.9,2,2.4,2c0.7,0,1.2-0.2,1.6-0.5C965.4,268.9,965.7,268.3,965.7,267.5z M941.4,261.6
			c0,2.6,0.7,4.6,2.2,6c1.5,1.4,3.4,2.2,5.9,2.2c2.5,0,4.5-0.8,5.9-2.4c1.4-1.6,2.1-3.7,2.2-6.3l-0.1-7.8c0-0.9-0.2-1.6-0.6-2
			c-0.4-0.4-1-0.6-1.8-0.6c-1.6,0-2.4,0.7-2.4,2.2c0,0,0,1.4,0.1,4.2c0,2.8,0,4.2-0.1,4.4c0,1.2-0.3,2.1-0.8,2.9
			c-0.5,0.8-1.3,1.1-2.3,1.1c-1.1,0-1.9-0.3-2.5-1c-0.6-0.7-0.9-1.7-0.9-3c0-4.4,0-7.2,0-8.4c0-0.9-0.2-1.5-0.5-1.8
			c-0.4-0.4-1-0.6-1.9-0.6c-0.7,0-1.2,0.2-1.6,0.5c-0.4,0.4-0.6,0.9-0.6,1.5C941.5,254.6,941.5,257.6,941.4,261.6z M933,260.4
			c0,1.7-0.1,2.9-0.4,3.8c-0.3,0.8-0.8,1.3-1.6,1.3c-0.5,0-1-0.2-1.5-0.5c-0.5-0.4-1.1-0.6-1.7-0.6c-0.6,0-1,0.2-1.4,0.6
			c-0.4,0.4-0.6,0.9-0.6,1.6c0,0.7,0.3,1.4,1,2c1.1,0.9,2.5,1.4,4.1,1.4c2.3,0,4-0.7,5.1-2c1.1-1.3,1.7-3.2,1.7-5.5
			c0-1.4,0.1-2.5,0.1-3.3c0-0.9,0-2,0-3.3c0-1.4,0-2.4,0-3.1c0-0.7-0.2-1.3-0.7-1.7c-0.5-0.4-1.1-0.6-1.8-0.6
			c-0.7,0-1.3,0.2-1.7,0.6c-0.4,0.4-0.7,1-0.6,1.6L933,260.4z"/>
		<path fill-rule="evenodd" clip-rule="evenodd" fill="#FDF9CE" d="M1005.5,235.4L1005.5,235.4c2.8,0,5.1,2.3,5.1,5.1v10.4
			c0,2.8-2.3,5.1-5.1,5.1h0c-2.8,0-5.1-2.3-5.1-5.1v-10.4C1000.4,237.7,1002.7,235.4,1005.5,235.4 M914.4,235.4L914.4,235.4
			c2.8,0,5.1,2.3,5.1,5.1v10.4c0,2.8-2.3,5.1-5.1,5.1h0c-2.8,0-5.1-2.3-5.1-5.1v-10.4C909.3,237.7,911.6,235.4,914.4,235.4z"/>
	</g>
	<g>
		<path fill-rule="evenodd" clip-rule="evenodd" fill="#5E9741" d="M130.6,687.1H247c3.4,0,6.7,2.8,6.3,6.3l-15.7,125.4
			c-0.4,3.4-2.8,6.3-6.3,6.3h-85.1c-3.4,0-5.8-2.8-6.3-6.3l-15.7-125.4C123.9,689.9,127.1,687.1,130.6,687.1"/>
		<path fill-rule="evenodd" clip-rule="evenodd" fill="#5F6029" d="M124.3,678.1h128.9c4.9,0,9,4,9,9c0,4.9-4,9-9,9H124.3
			c-4.9,0-9-4-9-9C115.3,682.1,119.4,678.1,124.3,678.1"/>
	</g>
	<g>
		<path fill-rule="evenodd" clip-rule="evenodd" fill="#FDF9CE" d="M495.4,424.2v45.2c0,4.4-3.6,8-8,8H443c-4.4,0-8-3.6-8-8v-45.2
			c0,1.3,13.5,2.3,30.2,2.3C481.8,426.5,495.4,425.5,495.4,424.2"/>
		<path fill-rule="evenodd" clip-rule="evenodd" fill="#C0C190" d="M465.2,421.8c16.7,0,30.2,1,30.2,2.3s-13.5,2.3-30.2,2.3
			c-16.7,0-30.2-1-30.2-2.3S448.5,421.8,465.2,421.8"/>
		<polygon fill-rule="evenodd" clip-rule="evenodd" fill="#C9962B" points="464.3,391.7 467.8,397.8 471.4,404 464.3,404 457.2,404 
			460.7,397.8 		"/>
		<path fill-rule="evenodd" clip-rule="evenodd" fill="#95C93D" d="M461.3,401c0,1.7,1.4,3,3,3c1.7,0,3-1.4,3-3c0,1.7,1.4,3,3,3
			c0.4,0,0.7-0.1,1-0.2v22.7c-2,0-4.1,0-6.2,0c-2.8,0-5.4,0-8-0.1v-22.6c0.3,0.1,0.7,0.2,1,0.2C459.9,404,461.3,402.6,461.3,401"/>
		<path fill-rule="evenodd" clip-rule="evenodd" fill="#2E2F15" d="M466,394.6l-1.7-2.9l-1.7,2.9c0.5,0.3,1.1,0.4,1.7,0.4
			C464.9,395,465.5,394.9,466,394.6"/>
		<polygon fill-rule="evenodd" clip-rule="evenodd" fill="#C9962B" points="426.1,381.1 431.6,385.6 437.2,390.1 430.5,392.6 
			423.9,395.1 425,388.1 		"/>
		<path fill-rule="evenodd" clip-rule="evenodd" fill="#FFCC06" d="M426.6,390.8c0.6,1.6,2.3,2.4,3.9,1.8c1.6-0.6,2.4-2.3,1.8-3.9
			c0.6,1.6,2.3,2.4,3.9,1.8c0.3-0.1,0.6-0.3,0.9-0.5l13.8,36.4c-9.2-0.4-15.5-1.1-16-2l0,0l0,0v0l-11.1-29.3c0.3,0,0.7-0.1,1-0.2
			C426.4,394.1,427.2,392.4,426.6,390.8"/>
		<path fill-rule="evenodd" clip-rule="evenodd" fill="#2E2F15" d="M428.7,383.2l-2.6-2.1l-0.5,3.3c0.6,0.1,1.2,0,1.7-0.2
			C427.9,384,428.4,383.6,428.7,383.2"/>
		<polygon fill-rule="evenodd" clip-rule="evenodd" fill="#C9962B" points="444.1,376.2 449.1,381.3 454,386.3 447.2,388.1 
			440.3,389.9 442.2,383 		"/>
		<path fill-rule="evenodd" clip-rule="evenodd" fill="#F15F61" d="M443.5,385.9c0.4,1.6,2.1,2.6,3.7,2.2c1.6-0.4,2.6-2.1,2.2-3.7
			c0.4,1.6,2.1,2.6,3.7,2.2c0.4-0.1,0.7-0.2,1-0.4l10.4,40.4c-5.4,0-10.4-0.1-14.8-0.3l-9.4-36.5c0.3,0,0.7,0,1.1-0.1
			C442.9,389.2,443.9,387.5,443.5,385.9"/>
		<path fill-rule="evenodd" clip-rule="evenodd" fill="#2E2F15" d="M446.4,378.6l-2.3-2.4l-0.9,3.2c0.5,0.2,1.1,0.2,1.7,0
			C445.5,379.3,446,379,446.4,378.6"/>
	</g>
	<g>
		<path fill-rule="evenodd" clip-rule="evenodd" fill="#FDF9CE" d="M959.4,430.4v19.5c0.2,0,0.4,0,0.6,0c2.7,0,5.2-1.1,6.9-2.8v0
			c1.8-1.8,2.9-4.2,2.9-6.9c0-2.7-1.1-5.2-2.8-6.9l0,0c-1.8-1.8-4.2-2.8-6.9-2.8C959.8,430.4,959.6,430.4,959.4,430.4 M959.4,415.1
			v7l0.6,0c5,0,9.5,2,12.8,5.3l0,0l0,0c3.3,3.3,5.3,7.8,5.3,12.8c0,5-2,9.5-5.3,12.8l0,0c-3.3,3.3-7.8,5.3-12.8,5.3l-0.6,0v2
			c0,4.4-3.6,8-8,8H907c-4.4,0-8-3.6-8-8v-45.2c0,1.3,13.5,2.3,30.2,2.3C945.9,417.4,959.4,416.4,959.4,415.1z"/>
		<path fill-rule="evenodd" clip-rule="evenodd" fill="#C0C190" d="M929.2,412.7c16.7,0,30.2,1,30.2,2.3c0,1.3-13.5,2.3-30.2,2.3
			c-16.7,0-30.2-1-30.2-2.3C899,413.8,912.5,412.7,929.2,412.7"/>
		<path fill-rule="evenodd" clip-rule="evenodd" fill="#FDF9CE" d="M881.5,466h95.4v0c0,6.2-5.1,11.3-11.3,11.3h-72.7
			C886.6,477.3,881.5,472.2,881.5,466L881.5,466z"/>
	</g>
	<g>
		<rect x="1131.5" y="503.4" fill-rule="evenodd" clip-rule="evenodd" fill="#C9962B" width="196.4" height="83.1"/>
		<rect x="1145.2" y="515.6" fill-rule="evenodd" clip-rule="evenodd" fill="#E5AB26" width="168.9" height="58.8"/>
		<path fill-rule="evenodd" clip-rule="evenodd" fill="#876427" d="M1229.7,536c5,0,9,4,9,9c0,5-4,9-9,9c-5,0-9-4-9-9
			C1220.7,540,1224.7,536,1229.7,536"/>
		<rect x="1131.5" y="586.6" fill-rule="evenodd" clip-rule="evenodd" fill="#C9962B" width="196.4" height="83.1"/>
		<rect x="1145.2" y="598.7" fill-rule="evenodd" clip-rule="evenodd" fill="#E5AB26" width="168.9" height="58.8"/>
		<path fill-rule="evenodd" clip-rule="evenodd" fill="#876427" d="M1229.7,619.1c5,0,9,4,9,9c0,5-4,9-9,9c-5,0-9-4-9-9
			C1220.7,623.2,1224.7,619.1,1229.7,619.1"/>
		<rect x="1131.5" y="669.7" fill-rule="evenodd" clip-rule="evenodd" fill="#C9962B" width="196.4" height="83.1"/>
		<rect x="1145.2" y="681.9" fill-rule="evenodd" clip-rule="evenodd" fill="#E5AB26" width="168.9" height="58.8"/>
		<path fill-rule="evenodd" clip-rule="evenodd" fill="#876427" d="M1229.7,702.3c5,0,9,4,9,9c0,5-4,9-9,9c-5,0-9-4-9-9
			C1220.7,706.3,1224.7,702.3,1229.7,702.3"/>
		<rect x="1131.5" y="752.8" fill-rule="evenodd" clip-rule="evenodd" fill="#C9962B" width="196.4" height="83.1"/>
		<rect x="1145.2" y="765" fill-rule="evenodd" clip-rule="evenodd" fill="#E5AB26" width="168.9" height="58.8"/>
		<path fill-rule="evenodd" clip-rule="evenodd" fill="#876427" d="M1229.7,785.4c5,0,9,4,9,9c0,5-4,9-9,9c-5,0-9-4-9-9
			C1220.7,789.4,1224.7,785.4,1229.7,785.4"/>
	</g>
</g>
</svg>
